<svg xmlns="http://www.w3.org/2000/svg" width="104" height="56" fill="none"><g fill="#8E8F99"><path d="M26.792 44.373c.245.274.376.616.37.968.012.229-.033.458-.132.67-.1.211-.25.4-.441.552a2.68 2.68 0 0 1-1.664.446H22v-6.132h2.865a2.646 2.646 0 0 1 1.587.407c.185.14.332.316.428.515.097.2.14.416.128.633.017.338-.101.67-.333.937a1.59 1.59 0 0 1-.872.48c.389.064.739.25.989.524Zm-3.431-.926h1.225c.278.019.554-.053.778-.203a.732.732 0 0 0 .21-.272.663.663 0 0 0 .053-.328.685.685 0 0 0-.055-.325.752.752 0 0 0-.204-.274 1.28 1.28 0 0 0-.802-.206H23.36v1.608Zm2.123 2.352a.769.769 0 0 0 .226-.281.693.693 0 0 0 .064-.342.704.704 0 0 0-.067-.346.781.781 0 0 0-.23-.283 1.366 1.366 0 0 0-.832-.222h-1.284v1.687h1.301c.293.015.583-.06.822-.213ZM32.649 47.01l-1.594-2.397h-.6v2.396h-1.37v-6.132h2.595a2.751 2.751 0 0 1 1.807.521c.363.333.582.772.617 1.237.036.465-.115.926-.424 1.3-.32.33-.757.551-1.238.624l1.697 2.45h-1.49Zm-2.193-3.233h1.121c.779 0 1.168-.31 1.168-.929a.831.831 0 0 0-.063-.371.91.91 0 0 0-.223-.318 1.307 1.307 0 0 0-.882-.248h-1.135l.014 1.866ZM40.143 45.775H37.41l-.482 1.234H35.49L38 40.946h1.554l2.499 6.063h-1.438l-.472-1.234Zm-.367-.928-.998-2.589-.998 2.588h1.996ZM49.523 47.01h-1.36l-3.052-4.17v4.17h-1.358v-6.133h1.358l3.051 4.194v-4.194h1.361v6.132ZM57.29 45.541a2.82 2.82 0 0 1-1.231 1.082c-.592.27-1.25.402-1.913.386h-2.423v-6.132h2.423a4.472 4.472 0 0 1 1.913.377c.521.237.95.61 1.231 1.07.28.499.426 1.05.426 1.609a3.28 3.28 0 0 1-.426 1.608Zm-1.557-.146a2.12 2.12 0 0 0 .602-1.464 2.12 2.12 0 0 0-.602-1.463 2.536 2.536 0 0 0-1.704-.522h-.945v3.97h.945a2.536 2.536 0 0 0 1.704-.521ZM40.995 6.767s17.566 5.97 17.194 14.61v14.614S40.635 30.017 41 21.377l-.006-14.61ZM73.839 32.57c3.317-2.056 7.155-3.33 11.161-3.703v-4.575c-4.616 1.601-8.531 4.505-11.161 8.277Z"/><path d="M71.846 33.948C74.56 29.025 79.269 25.227 85 23.334V10.152s-25.018 8.505-24.489 20.809v20.806s1.115-.38 2.869-1.094c0-.665 0-1.336.08-2.01.517-5.712 3.534-11.005 8.386-14.715Z"/><path d="M69.466 41.677c.132-1.443.425-2.87.876-4.26-3.022 3.204-4.851 7.18-5.232 11.369-.036.395-.056.79-.066 1.198a75.886 75.886 0 0 0 4.812-2.282 19.43 19.43 0 0 1-.39-6.025ZM70.461 41.752a18.564 18.564 0 0 0 .31 5.455c6.835-3.682 14.515-9.37 14.219-16.246v-.6c-4.883.493-9.452 2.415-13.005 5.471a18.817 18.817 0 0 0-1.524 5.92Z"/></g></svg>